<svg viewBox="0 0 100 100" xmlns="http://www.w3.org/2000/svg">
  <rect width="100" height="100" rx="22" fill="url(#grad)" />
  <defs>
    <linearGradient id="grad" x1="0%" y1="0%" x2="100%" y2="100%">
      <stop offset="0%" stop-color="#34d399" />
      <stop offset="100%" stop-color="#059669" />
    </linearGradient>
  </defs>
  <path d="M45 85 h10 v-18 h-10 z" fill="#09090b" />
  <path d="M42 62 h16 v-14 h-16 z" fill="#09090b" opacity="0.95" />
  <path d="M38 43 h24 v-10 h-24 z" fill="#09090b" opacity="0.9" />
  <path d="M50 30 C50 18, 32 16, 20 28 C32 24, 46 26, 48 30 Z" fill="#09090b" />
  <path d="M50 30 C50 18, 68 16, 80 28 C68 24, 54 26, 52 30 Z" fill="#09090b" />
  <path d="M49 28 C45 15, 25 22, 12 40 C25 32, 42 32, 47 30 Z" fill="#09090b" />
  <path d="M51 28 C55 15, 75 22, 88 40 C75 32, 58 32, 53 30 Z" fill="#09090b" />
  <path d="M50 26 C50 10, 50 10, 50 8 C50 10, 50 10, 50 26 Z" stroke="#09090b" stroke-width="4" stroke-linecap="round" />
</svg>